HIERARCHY
ROOT Hips
{
	OFFSET 0.000000 0.000000 0.000000
	CHANNELS 6 Xposition Yposition Zposition Zrotation Yrotation Xrotation 
	JOINT LHipJoint
	{
		OFFSET 0.000000 0.000000 0.000000
		CHANNELS 3 Zrotation Yrotation Xrotation
		JOINT LeftUpLeg
		{
			OFFSET 1.363060 -1.794630 0.839290
			CHANNELS 3 Zrotation Yrotation Xrotation
			JOINT LeftLeg
			{
				OFFSET 2.448110 -6.726130 0.000000
				CHANNELS 3 Zrotation Yrotation Xrotation
				JOINT LeftFoot
				{
					OFFSET 2.562200 -7.039590 0.000000
					CHANNELS 3 Zrotation Yrotation Xrotation
					JOINT LeftToeBase
					{
						OFFSET 0.157640 -0.433110 2.322550
						CHANNELS 3 Zrotation Yrotation Xrotation
						End Site
						{
							OFFSET 0.000000 0.000000 0.000000
						}
					}
				}
			}
		}
	}
	JOINT RHipJoint
	{
		OFFSET 0.000000 0.000000 0.000000
		CHANNELS 3 Zrotation Yrotation Xrotation
		JOINT RightUpLeg
		{
			OFFSET -1.305520 -1.794630 0.839290
			CHANNELS 3 Zrotation Yrotation Xrotation
			JOINT RightLeg
			{
				OFFSET -2.542530 -6.985550 0.000000
				CHANNELS 3 Zrotation Yrotation Xrotation
				JOINT RightFoot
				{
					OFFSET -2.568260 -7.056230 0.000000
					CHANNELS 3 Zrotation Yrotation Xrotation
					JOINT RightToeBase
					{
						OFFSET -0.164730 -0.452590 2.363150
						CHANNELS 3 Zrotation Yrotation Xrotation
						End Site
						{
							OFFSET 0.000000 0.000000 0.000000
						}
					}
				}
			}
		}
	}
}
MOTION
Frames: 25
Frame Time: 0.008333
3.687368 16.946046 -4.295425 -172.226537 16.100934 -157.068717 -14.551911 4.643608 4.716935 -7.317167 -7.825888 1.600910 0.794862 1.207847 19.852249 1.103907 -3.070427 27.610750 -2.256900 0.000000 -30.823700 5.168469 -2.572693 4.490049 12.218197 6.455557 -33.367439 4.486728 0.304407 12.518272 0.768173 3.828757 1.371610 0.047700 0.000000 -50.014900
3.794019 16.887496 -4.456456 -172.197642 15.878333 -157.333312 -14.727803 4.719912 4.413571 -6.808928 -5.525411 0.933957 0.837904 1.218809 21.627811 1.232589 -3.047537 28.625962 -2.360700 0.000000 -32.441800 5.107678 -2.622399 4.677179 12.188045 7.648654 -33.738097 4.209988 0.031936 15.548141 0.446602 2.656174 -0.844223 -0.162200 -0.000001 -46.928500
3.897747 16.831635 -4.615167 -172.207004 15.653500 -157.609054 -14.882736 4.769488 4.128600 -6.356493 -3.439614 0.185523 0.870302 1.232159 23.604898 1.366796 -2.743002 29.470810 -2.295100 -0.000000 -33.542100 5.067032 -2.638426 4.815692 12.150989 8.701939 -34.098368 3.918209 -0.241457 18.731817 0.102992 1.534391 -3.202492 -0.271200 0.000000 -44.091500
3.997895 16.780090 -4.771024 -172.254577 15.416094 -157.899040 -15.012030 4.791270 3.865517 -5.986039 -1.628380 -0.628726 0.893419 1.253051 25.771846 1.503794 -2.113742 30.100411 -2.024800 0.000001 -34.174399 5.049623 -2.625060 4.897048 12.126339 9.555663 -34.366768 3.633892 -0.495135 21.851600 -0.238482 0.513625 -5.551233 -0.279100 -0.000000 -41.734999
4.094235 16.734453 -4.923563 -172.338903 15.162743 -158.200801 -15.113652 4.785701 3.625493 -5.711775 -0.124550 -1.507874 0.908776 1.286475 28.113713 1.640889 -1.154315 30.474415 -1.540900 0.000000 -34.415700 5.053950 -2.591256 4.920075 12.131583 10.178554 -34.480504 3.377169 -0.713395 24.713557 -0.556800 -0.376548 -7.767652 -0.204900 -0.000000 -40.028700
4.186398 16.695922 -5.072516 -172.450173 14.890987 -158.505514 -15.188166 4.754459 3.408713 -5.537980 1.063450 -2.461238 0.918244 1.336642 30.609216 1.775716 0.104425 30.560956 -0.863600 0.000000 -34.357900 5.075121 -2.547544 4.889023 12.178992 10.564052 -34.402294 3.162635 -0.887070 27.171594 -0.837168 -1.120625 -9.767234 -0.076100 -0.000000 -39.043300
4.274412 16.665325 -5.217815 -172.581077 14.599493 -158.805302 -15.236373 4.700597 3.213987 -5.463180 1.948555 -3.498783 0.923816 1.406685 33.228716 1.906002 1.602909 30.339625 -0.037600 -0.000000 -34.094200 5.108337 -2.502842 4.810281 12.271441 10.720909 -34.118584 2.997469 -1.013224 29.138325 -1.071305 -1.711020 -11.503753 0.079100 -0.000001 -38.735500
4.358706 16.643077 -5.359481 -172.729337 14.287521 -159.095644 -15.258550 4.628152 3.039370 -5.482874 2.558296 -4.625356 0.927885 1.498145 35.931810 2.029553 3.264290 29.803639 0.875401 0.000000 -33.701000 5.150604 -2.463045 4.691155 12.401751 10.667820 -33.632231 2.882342 -1.092998 30.577155 -1.256494 -2.148267 -12.959357 0.237100 0.000000 -38.965900
4.439766 16.629151 -5.497713 -172.892556 13.952991 -159.376370 -15.254620 4.541455 2.881744 -5.588716 2.933125 -5.836454 0.933480 1.610522 38.669674 2.144113 5.004615 28.956047 1.806600 -0.000000 -33.218400 5.201349 -2.431391 4.539041 12.554870 10.429035 -32.954489 2.813474 -1.130180 31.493334 -1.393954 -2.440519 -14.136348 0.380400 0.000000 -39.537800
4.518237 16.623208 -5.633120 -173.072050 13.592158 -159.641955 -15.225830 4.444069 2.741197 -5.770782 3.109023 -7.133196 0.943666 1.740750 41.393372 2.248017 6.745828 27.811455 2.690900 -0.000000 -32.704400 5.260471 -2.408933 4.363562 12.711995 10.034111 -32.112940 2.784159 -1.129224 31.920469 -1.487946 -2.605095 -15.047474 0.498100 -0.000000 -40.229700
4.595000 16.624710 -5.766200 -173.273751 13.207245 -159.899121 -15.170979 4.339603 2.613886 -6.021335 3.133725 -8.495206 0.960539 1.884115 44.044631 2.339414 8.421128 26.389237 3.473400 0.000000 -32.123400 5.331577 -2.394736 4.172324 12.848281 9.514237 -31.125359 2.785203 -1.095860 31.913356 -1.543824 -2.664247 -15.712137 0.585200 -0.000001 -40.877900
4.670755 16.633021 -5.897807 -173.501828 12.798328 -160.144070 -15.091027 4.229988 2.500462 -6.332167 3.041789 -9.916070 0.985017 2.034029 46.575965 2.417464 9.980805 24.715127 4.113800 0.000000 -31.466700 5.416957 -2.387371 3.975665 12.942112 8.904404 -30.026345 2.806835 -1.035765 31.540988 -1.568317 -2.645857 -16.152916 0.641500 0.000000 -41.364400
4.745782 16.647381 -6.028898 -173.756231 12.367256 -160.371447 -14.987514 4.116102 2.402054 -6.696687 2.862750 -11.389046 1.016285 2.183392 48.946280 2.482069 11.392144 22.818850 4.588300 0.000000 -30.696000 5.518618 -2.385163 3.783633 12.974599 8.240830 -28.851587 2.839396 -0.954875 30.879823 -1.568275 -2.578329 -16.394275 0.670100 -0.000000 -41.641400
4.820567 16.667200 -6.160410 -174.039632 11.919348 -160.573081 -14.862242 3.997914 2.320867 -7.108868 2.617808 -12.912474 1.051740 2.325335 51.123881 2.534225 12.639709 20.736923 4.888700 0.000000 -29.803000 5.637530 -2.386527 3.606087 12.933918 7.560263 -27.640486 2.873910 -0.859130 30.008118 -1.550350 -2.487758 -16.462213 0.675700 -0.000001 -41.717600
4.895121 16.691881 -6.293235 -174.350562 11.460457 -160.737955 -14.717154 3.875031 2.260162 -7.565688 2.319583 -14.489280 1.087634 2.454142 53.088219 2.575547 13.721394 18.501320 5.019101 0.000000 -28.716500 5.774118 -2.390346 3.451383 12.813079 6.893185 -26.434932 2.903196 -0.754527 29.003160 -1.519668 -2.391567 -16.382969 0.663299 -0.000000 -41.643800
4.969330 16.720975 -6.428071 -174.685421 10.998746 -160.855242 -14.554649 3.746561 2.223081 -8.062626 1.974098 -16.123264 1.119602 2.565604 54.826193 2.608890 14.646958 16.150056 4.993800 0.000000 -27.419700 5.927158 -2.396184 3.325152 12.614044 6.263383 -25.272007 2.922536 -0.646537 27.931831 -1.479503 -2.298084 -16.178466 0.636700 -0.000000 -41.498800
5.042631 16.754108 -6.565458 -175.031612 10.543699 -160.916278 -14.379028 3.611036 2.210730 -8.587432 1.587411 -17.814666 1.143367 2.657555 56.330207 2.637692 15.431483 13.720435 4.832300 0.000000 -25.936600 6.091887 -2.404921 3.229779 12.351620 5.689955 -24.175506 2.930521 -0.539419 26.841463 -1.431563 -2.209416 -15.862322 0.598300 0.000000 -41.377000
5.114675 16.791007 -6.705629 -175.381564 10.106720 -160.918204 -14.192747 3.467833 2.223214 -9.130858 1.161585 -19.558274 1.154924 2.729455 57.594940 2.665500 16.094269 11.241526 4.555600 0.000000 -24.261600 6.264772 -2.417331 3.163127 12.040893 5.175516 -23.160024 2.927719 -0.436718 25.765107 -1.374363 -2.113918 -15.439929 0.548600 -0.000000 -41.375900
5.184968 16.831393 -6.848652 -175.727413 9.698177 -160.862068 -13.996684 3.317289 2.260465 -9.686925 0.695215 -21.343886 1.150987 2.781667 58.615810 2.695897 16.655193 8.736798 4.183601 -0.000000 -22.387100 6.443618 -2.434107 3.119935 11.695349 4.708023 -22.232791 2.916606 -0.340961 24.721013 -1.304060 -1.989504 -14.909914 0.487000 0.000000 -41.581900
5.253044 16.875019 -6.994228 -176.055683 9.330691 -160.759583 -13.794189 3.159352 2.316091 -10.235332 0.200964 -23.145783 1.128411 2.816212 59.384088 2.731006 17.123374 6.220454 3.730001 0.000000 -20.308300 6.622283 -2.456708 3.090938 11.339244 4.277269 -21.371995 2.901404 -0.253007 23.699927 -1.217106 -1.819081 -14.258814 0.413100 -0.000000 -42.057800
5.318743 16.921531 -7.142085 -176.363170 9.014067 -160.622943 -13.583975 2.995971 2.387246 -10.771034 -0.318361 -24.938245 1.084906 2.833849 59.887738 2.772989 17.509027 3.714933 3.211100 -0.000000 -18.081900 6.800753 -2.485152 3.066561 10.980770 3.856432 -20.563588 2.885687 -0.173604 22.693921 -1.108724 -1.576489 -13.476354 0.327700 0.000000 -42.830600
5.381935 16.970549 -7.291734 -176.641939 8.757900 -160.471906 -13.367072 2.828748 2.465312 -11.278385 -0.844237 -26.684363 1.017957 2.836078 60.111654 2.821226 17.805573 1.230380 2.636200 0.000000 -15.680000 6.976092 -2.519687 3.036019 10.633834 3.428651 -19.772387 2.872962 -0.102475 21.678533 -0.977006 -1.249552 -12.548849 0.234000 0.000000 -43.889099
5.442769 17.021542 -7.442754 -176.890068 8.568401 -160.323453 -13.142554 2.660212 2.544205 -11.749745 -1.361539 -28.351757 0.925908 2.822969 60.039563 2.874106 18.002904 -1.207944 2.020600 0.000000 -13.133300 7.148657 -2.559654 2.991156 10.301709 2.976581 -18.971764 2.865098 -0.039374 20.635433 -0.821994 -0.830494 -11.470624 0.138100 0.000000 -45.184900
5.501727 17.073804 -7.594815 -177.111960 8.448354 -160.192622 -12.908266 2.493611 2.619594 -12.183419 -1.856483 -29.911558 0.808388 2.793424 59.654503 2.928623 18.087992 -3.552400 1.388400 -0.000000 -10.588100 7.321153 -2.603695 2.926683 9.980419 2.486631 -18.142423 2.862126 0.015722 19.554540 -0.646446 -0.319280 -10.246025 0.049000 0.000000 -46.644800
5.559264 17.126617 -7.747758 -177.309983 8.396013 -160.089607 -12.663402 2.331850 2.687654 -12.577327 -2.312958 -31.343498 0.665930 2.746341 58.946063 2.979552 18.041182 -5.757532 0.766199 -0.000000 -8.096400 7.495407 -2.650550 2.841000 9.665212 1.957046 -17.271432 2.862804 0.062919 18.431967 -0.456495 0.270837 -8.887525 -0.023300 -0.000001 -48.186400
